<svg width="215" height="60" viewBox="0 0 215 60" fill="none" xmlns="http://www.w3.org/2000/svg">
<path d="M17.6399 24.9474C18.3359 26.3297 18.474 27.9266 18.0255 29.4079C17.577 30.8891 16.5763 32.1413 15.2304 32.9053C12.6725 33.8053 9.60305 31.6927 8.37778 28.1937C7.68055 26.8115 7.5415 25.2141 7.98943 23.7321C8.43736 22.2502 9.43796 20.9973 10.7841 20.2327C13.342 19.3327 16.4115 21.4485 17.6399 24.9474ZM38.2325 49.8253C37.1163 49.8268 36.0108 49.6078 34.9795 49.1807C33.9482 48.7537 33.0114 48.1271 32.2231 47.3369C31.6333 46.7476 30.8336 46.4165 29.9999 46.4165C29.1661 46.4165 28.3665 46.7476 27.7767 47.3369C26.1794 48.916 24.0219 49.7987 21.7758 49.7923C19.5297 49.7858 17.3774 48.8907 15.7891 47.3024C14.2008 45.7142 13.3057 43.5619 13.2992 41.3157C13.2928 39.0696 14.1755 36.9122 15.7546 35.3148C17.6248 33.4431 19.8455 31.9583 22.2898 30.9453C24.7341 29.9323 27.354 29.4109 29.9999 29.4109C32.6458 29.4109 35.2657 29.9323 37.71 30.9453C40.1543 31.9583 42.375 33.4431 44.2452 35.3148C45.4336 36.5038 46.2427 38.0186 46.5704 39.6675C46.898 41.3164 46.7294 43.0254 46.0859 44.5785C45.4423 46.1315 44.3527 47.459 42.9549 48.3929C41.557 49.3268 39.9137 49.8253 38.2325 49.8253ZM29.1473 19.1274C29.5483 23.3495 27.3694 27.0095 24.2841 27.3C21.1988 27.5906 18.3725 24.4043 17.9746 20.1821C17.5736 15.9632 19.7525 12.3032 22.8378 12.0127C25.923 11.719 28.7462 14.9053 29.1473 19.1274ZM30.8525 19.1274C30.4515 23.3495 32.6304 27.0095 35.7157 27.3C38.8009 27.5906 41.6241 24.4043 42.0252 20.1821C42.4262 15.9632 40.2473 12.3032 37.162 12.0127C34.0767 11.719 31.2504 14.9053 30.8525 19.1274ZM42.3599 24.9443C41.662 26.3272 41.5229 27.9256 41.9714 29.4084C42.42 30.8911 43.4219 32.1443 44.7694 32.9085C47.3273 33.8053 50.3967 31.6927 51.622 28.1937C52.3192 26.8115 52.4583 25.2141 52.0103 23.7321C51.5624 22.2502 50.5618 20.9973 49.2157 20.2327C46.6578 19.3327 43.5883 21.4453 42.3599 24.9443Z" fill="#315AA9"/>
<path d="M71.56 42V24.496L70.92 21.264L71.56 19.344H81.8C83.3573 19.344 84.7547 19.5893 85.992 20.08C87.2507 20.5493 88.2427 21.36 88.968 22.512C89.7147 23.6427 90.088 25.2107 90.088 27.216C90.088 29.2213 89.6933 30.8107 88.904 31.984C88.1147 33.136 87.016 33.9573 85.608 34.448C84.2213 34.9387 82.632 35.184 80.84 35.184H77.32V36.848L77.64 40.048L77.32 42H71.56ZM77.32 30.16H80.456C81.5653 30.16 82.4507 29.9573 83.112 29.552C83.7733 29.1253 84.104 28.3467 84.104 27.216C84.104 26.4267 83.944 25.84 83.624 25.456C83.304 25.0507 82.856 24.784 82.28 24.656C81.7253 24.528 81.0747 24.464 80.328 24.464H77L77.32 30.16ZM94.2475 42V24.496L93.6075 21.264L94.2475 19.344H104.488C106.045 19.344 107.442 19.5893 108.68 20.08C109.938 20.5493 110.93 21.36 111.656 22.512C112.402 23.6427 112.776 25.2107 112.776 27.216C112.776 29.2213 112.381 30.8107 111.592 31.984C110.802 33.136 109.704 33.9573 108.296 34.448C106.909 34.9387 105.32 35.184 103.528 35.184H100.008V36.848L100.328 40.048L100.008 42H94.2475ZM100.008 30.16H103.144C104.253 30.16 105.138 29.9573 105.8 29.552C106.461 29.1253 106.792 28.3467 106.792 27.216C106.792 26.4267 106.632 25.84 106.312 25.456C105.992 25.0507 105.544 24.784 104.968 24.656C104.413 24.528 103.762 24.464 103.016 24.464H99.6875L100.008 30.16ZM113.414 42L114.95 36.592V32.528L117.318 31.568L121.478 19.376H129.766L134.918 33.712L137.382 38.256V42H131.718L130.118 36.88H120.806L119.43 42H113.414ZM122.918 31.952H128.358L125.926 24.624H125.254L122.918 31.952ZM144.568 42.32C143.565 42.32 142.594 42.064 141.656 41.552C140.738 41.04 139.981 40.2293 139.384 39.12C138.786 38.0107 138.488 36.56 138.488 34.768C138.488 32.784 138.776 31.1947 139.352 30C139.949 28.8053 140.717 27.9413 141.656 27.408C142.594 26.8533 143.565 26.576 144.568 26.576C146.082 26.576 147.149 26.704 147.768 26.96C148.408 27.216 148.728 27.344 148.728 27.344L148.408 21.296L148.728 19.376H154.52V36.88L155.16 40.08L154.52 42.032H149.048V40.464L148.728 40.304C148.728 40.304 148.568 40.4747 148.248 40.816C147.928 41.136 147.458 41.4667 146.84 41.808C146.221 42.1493 145.464 42.32 144.568 42.32ZM146.968 37.808L148.728 37.36V32.688C148.728 32.1973 148.568 31.8133 148.248 31.536C147.928 31.2373 147.501 31.088 146.968 31.088C146.178 31.088 145.581 31.3547 145.176 31.888C144.77 32.4 144.568 33.2533 144.568 34.448C144.568 35.6213 144.802 36.4747 145.272 37.008C145.741 37.5413 146.306 37.808 146.968 37.808ZM157.718 28.848L158.71 26.896H163.478V28.272L163.766 28.464C164 28.2507 164.32 28.0053 164.726 27.728C165.152 27.4293 165.664 27.1627 166.262 26.928C166.859 26.6933 167.531 26.576 168.278 26.576C170.496 26.576 172.086 27.312 173.046 28.784C173.43 28.2507 174.006 27.7493 174.774 27.28C175.563 26.7893 176.651 26.544 178.038 26.544C179.958 26.544 181.398 27.088 182.358 28.176C183.318 29.264 183.798 30.7893 183.798 32.752V36.848L184.47 40.048L183.798 42H178.038V33.584C178.038 32.7733 177.856 32.1547 177.494 31.728C177.152 31.28 176.608 31.056 175.862 31.056C175.371 31.056 174.944 31.2373 174.582 31.6C174.219 31.9627 174.038 32.4213 174.038 32.976V42H168.278V33.616C168.278 32.8053 168.096 32.1867 167.734 31.76C167.392 31.312 166.848 31.088 166.102 31.088L164.118 31.696V42H158.358V32.368L157.718 28.848ZM190.55 25.968L186.486 21.872L190.55 17.808L194.614 21.872L190.55 25.968ZM187.67 42V31.408L186.998 28.848L187.638 26.896H193.43V42H187.67ZM197.014 42V32.368L196.374 28.848L197.366 26.896H202.134V28.272L202.422 28.464C202.656 28.2507 202.976 28.0053 203.382 27.728C203.808 27.4293 204.32 27.1627 204.918 26.928C205.515 26.6933 206.187 26.576 206.934 26.576C208.854 26.576 210.294 27.12 211.254 28.208C212.214 29.296 212.694 30.8213 212.694 32.784V36.848L213.366 40.048L212.694 42H206.934V33.616C206.934 32.8053 206.752 32.1867 206.39 31.76C206.048 31.312 205.504 31.088 204.758 31.088L202.774 31.696V42H197.014Z" fill="white"/>
</svg>
