<svg width="238" height="60" viewBox="0 0 238 60" fill="none" xmlns="http://www.w3.org/2000/svg">
<path d="M17.6399 24.9474C18.3359 26.3297 18.474 27.9266 18.0255 29.4079C17.577 30.8891 16.5763 32.1413 15.2304 32.9053C12.6725 33.8053 9.60305 31.6927 8.37778 28.1937C7.68055 26.8115 7.5415 25.2141 7.98943 23.7321C8.43736 22.2502 9.43796 20.9973 10.7841 20.2327C13.342 19.3327 16.4115 21.4485 17.6399 24.9474ZM38.2325 49.8253C37.1163 49.8268 36.0108 49.6078 34.9795 49.1807C33.9482 48.7537 33.0114 48.1271 32.2231 47.3369C31.6333 46.7476 30.8336 46.4165 29.9999 46.4165C29.1661 46.4165 28.3665 46.7476 27.7767 47.3369C26.1794 48.916 24.0219 49.7987 21.7758 49.7923C19.5297 49.7858 17.3774 48.8907 15.7891 47.3024C14.2008 45.7142 13.3057 43.5619 13.2992 41.3157C13.2928 39.0696 14.1755 36.9122 15.7546 35.3148C17.6248 33.4431 19.8455 31.9583 22.2898 30.9453C24.7341 29.9323 27.354 29.4109 29.9999 29.4109C32.6458 29.4109 35.2657 29.9323 37.71 30.9453C40.1543 31.9583 42.375 33.4431 44.2452 35.3148C45.4336 36.5038 46.2427 38.0186 46.5704 39.6675C46.898 41.3164 46.7294 43.0254 46.0859 44.5785C45.4423 46.1315 44.3527 47.459 42.9549 48.3929C41.557 49.3268 39.9137 49.8253 38.2325 49.8253ZM29.1473 19.1274C29.5483 23.3495 27.3694 27.0095 24.2841 27.3C21.1988 27.5906 18.3725 24.4043 17.9746 20.1821C17.5736 15.9632 19.7525 12.3032 22.8378 12.0127C25.923 11.719 28.7462 14.9053 29.1473 19.1274ZM30.8525 19.1274C30.4515 23.3495 32.6304 27.0095 35.7157 27.3C38.8009 27.5906 41.6241 24.4043 42.0252 20.1821C42.4262 15.9632 40.2473 12.3032 37.162 12.0127C34.0767 11.719 31.2504 14.9053 30.8525 19.1274ZM42.3599 24.9443C41.662 26.3272 41.5229 27.9256 41.9714 29.4084C42.42 30.8911 43.4219 32.1443 44.7694 32.9085C47.3273 33.8053 50.3967 31.6927 51.622 28.1937C52.3192 26.8115 52.4583 25.2141 52.0103 23.7321C51.5624 22.2502 50.5618 20.9973 49.2157 20.2327C46.6578 19.3327 43.5883 21.4453 42.3599 24.9443Z" fill="#465FFF"/>
<path d="M82.124 18.7C84.232 18.7 86.0567 19.0513 87.598 19.754C89.162 20.4567 90.3633 21.454 91.202 22.746C92.0407 24.038 92.46 25.568 92.46 27.336C92.46 29.0813 92.0407 30.6113 91.202 31.926C90.3633 33.218 89.162 34.2153 87.598 34.918C86.0567 35.598 84.232 35.938 82.124 35.938H77.33V42.5H71.822V18.7H82.124ZM81.818 31.45C83.4727 31.45 84.7307 31.0987 85.592 30.396C86.4533 29.6707 86.884 28.6507 86.884 27.336C86.884 25.9987 86.4533 24.9787 85.592 24.276C84.7307 23.5507 83.4727 23.188 81.818 23.188H77.33V31.45H81.818ZM106.694 18.7C108.802 18.7 110.627 19.0513 112.168 19.754C113.732 20.4567 114.934 21.454 115.772 22.746C116.611 24.038 117.03 25.568 117.03 27.336C117.03 29.0813 116.611 30.6113 115.772 31.926C114.934 33.218 113.732 34.2153 112.168 34.918C110.627 35.598 108.802 35.938 106.694 35.938H101.9V42.5H96.3923V18.7H106.694ZM106.388 31.45C108.043 31.45 109.301 31.0987 110.162 30.396C111.024 29.6707 111.454 28.6507 111.454 27.336C111.454 25.9987 111.024 24.9787 110.162 24.276C109.301 23.5507 108.043 23.188 106.388 23.188H101.9V31.45H106.388ZM131.341 18.292C133.539 18.292 135.455 18.7227 137.087 19.584C138.719 20.4453 139.988 21.7147 140.895 23.392C141.801 25.0693 142.255 27.098 142.255 29.478V42.5H136.747V36.788H125.867V42.5H120.427V29.478C120.427 27.098 120.88 25.0693 121.787 23.392C122.693 21.7147 123.963 20.4453 125.595 19.584C127.227 18.7227 129.142 18.292 131.341 18.292ZM136.747 32.368V28.968C136.747 26.996 136.259 25.5113 135.285 24.514C134.31 23.494 132.984 22.984 131.307 22.984C129.607 22.984 128.269 23.494 127.295 24.514C126.343 25.5113 125.867 26.996 125.867 28.968V32.368H136.747ZM165.949 17.272V42.5H160.883V40.392C159.568 41.9787 157.664 42.772 155.171 42.772C153.448 42.772 151.884 42.3867 150.479 41.616C149.096 40.8453 148.008 39.746 147.215 38.318C146.422 36.89 146.025 35.2353 146.025 33.354C146.025 31.4727 146.422 29.818 147.215 28.39C148.008 26.962 149.096 25.8627 150.479 25.092C151.884 24.3213 153.448 23.936 155.171 23.936C157.506 23.936 159.33 24.6727 160.645 26.146V17.272H165.949ZM156.089 38.42C157.426 38.42 158.537 37.9667 159.421 37.06C160.305 36.1307 160.747 34.8953 160.747 33.354C160.747 31.8127 160.305 30.5887 159.421 29.682C158.537 28.7527 157.426 28.288 156.089 28.288C154.729 28.288 153.607 28.7527 152.723 29.682C151.839 30.5887 151.397 31.8127 151.397 33.354C151.397 34.8953 151.839 36.1307 152.723 37.06C153.607 37.9667 154.729 38.42 156.089 38.42ZM194.284 23.936C196.573 23.936 198.387 24.616 199.724 25.976C201.084 27.3133 201.764 29.3307 201.764 32.028V42.5H196.46V32.844C196.46 31.3933 196.154 30.3167 195.542 29.614C194.953 28.8887 194.103 28.526 192.992 28.526C191.745 28.526 190.759 28.934 190.034 29.75C189.309 30.5433 188.946 31.7333 188.946 33.32V42.5H183.642V32.844C183.642 29.9653 182.486 28.526 180.174 28.526C178.95 28.526 177.975 28.934 177.25 29.75C176.525 30.5433 176.162 31.7333 176.162 33.32V42.5H170.858V24.208H175.924V26.316C176.604 25.5453 177.431 24.956 178.406 24.548C179.403 24.14 180.491 23.936 181.67 23.936C182.962 23.936 184.129 24.1967 185.172 24.718C186.215 25.2167 187.053 25.9533 187.688 26.928C188.436 25.976 189.377 25.2393 190.51 24.718C191.666 24.1967 192.924 23.936 194.284 23.936ZM206.518 24.208H211.822V42.5H206.518V24.208ZM209.17 21.658C208.196 21.658 207.402 21.3747 206.79 20.808C206.178 20.2413 205.872 19.5387 205.872 18.7C205.872 17.8613 206.178 17.1587 206.79 16.592C207.402 16.0253 208.196 15.742 209.17 15.742C210.145 15.742 210.938 16.014 211.55 16.558C212.162 17.102 212.468 17.782 212.468 18.598C212.468 19.482 212.162 20.2187 211.55 20.808C210.938 21.3747 210.145 21.658 209.17 21.658ZM227.863 23.936C230.13 23.936 231.954 24.616 233.337 25.976C234.742 27.336 235.445 29.3533 235.445 32.028V42.5H230.141V32.844C230.141 31.3933 229.824 30.3167 229.189 29.614C228.554 28.8887 227.636 28.526 226.435 28.526C225.098 28.526 224.032 28.9453 223.239 29.784C222.446 30.6 222.049 31.824 222.049 33.456V42.5H216.745V24.208H221.811V26.35C222.514 25.5793 223.386 24.99 224.429 24.582C225.472 24.1513 226.616 23.936 227.863 23.936Z" fill="#313131"/>
</svg>
