<svg width="60" height="60" viewBox="0 0 60 60" fill="none" xmlns="http://www.w3.org/2000/svg">
<path d="M17.6399 24.9474C18.3359 26.3297 18.474 27.9266 18.0255 29.4079C17.577 30.8891 16.5763 32.1413 15.2304 32.9053C12.6725 33.8053 9.60305 31.6927 8.37778 28.1937C7.68055 26.8115 7.5415 25.2141 7.98943 23.7321C8.43736 22.2502 9.43796 20.9973 10.7841 20.2327C13.342 19.3327 16.4115 21.4485 17.6399 24.9474ZM38.2325 49.8253C37.1163 49.8268 36.0108 49.6078 34.9795 49.1807C33.9482 48.7537 33.0114 48.1271 32.2231 47.3369C31.6333 46.7476 30.8336 46.4165 29.9999 46.4165C29.1661 46.4165 28.3665 46.7476 27.7767 47.3369C26.1794 48.916 24.0219 49.7987 21.7758 49.7923C19.5297 49.7858 17.3774 48.8907 15.7891 47.3024C14.2008 45.7142 13.3057 43.5619 13.2992 41.3157C13.2928 39.0696 14.1755 36.9122 15.7546 35.3148C17.6248 33.4431 19.8455 31.9583 22.2898 30.9453C24.7341 29.9323 27.354 29.4109 29.9999 29.4109C32.6458 29.4109 35.2657 29.9323 37.71 30.9453C40.1543 31.9583 42.375 33.4431 44.2452 35.3148C45.4336 36.5038 46.2427 38.0186 46.5704 39.6675C46.898 41.3164 46.7294 43.0254 46.0859 44.5785C45.4423 46.1315 44.3527 47.459 42.9549 48.3929C41.557 49.3268 39.9137 49.8253 38.2325 49.8253ZM29.1473 19.1274C29.5483 23.3495 27.3694 27.0095 24.2841 27.3C21.1988 27.5906 18.3725 24.4043 17.9746 20.1821C17.5736 15.9632 19.7525 12.3032 22.8378 12.0127C25.923 11.719 28.7462 14.9053 29.1473 19.1274ZM30.8525 19.1274C30.4515 23.3495 32.6304 27.0095 35.7157 27.3C38.8009 27.5906 41.6241 24.4043 42.0252 20.1821C42.4262 15.9632 40.2473 12.3032 37.162 12.0127C34.0767 11.719 31.2504 14.9053 30.8525 19.1274ZM42.3599 24.9443C41.662 26.3272 41.5229 27.9256 41.9714 29.4084C42.42 30.8911 43.4219 32.1443 44.7694 32.9085C47.3273 33.8053 50.3967 31.6927 51.622 28.1937C52.3192 26.8115 52.4583 25.2141 52.0103 23.7321C51.5624 22.2502 50.5618 20.9973 49.2157 20.2327C46.6578 19.3327 43.5883 21.4453 42.3599 24.9443Z" fill="#465FFF"/>
</svg>
